<svg width="79" height="68" viewBox="0 0 79 68" fill="none" xmlns="http://www.w3.org/2000/svg">
<circle cx="56.5" cy="22.5" r="22.5" fill="white" fill-opacity="0.11"/>
<g clip-path="url(#clip0_1_655)">
<path opacity="0.944" fill-rule="evenodd" clip-rule="evenodd" d="M67.9336 12.8165C67.9336 19.8114 67.9336 26.8061 67.9336 33.8009C67.5475 34.6957 66.8834 35.2933 65.9414 35.5939C64.7469 35.6603 63.5516 35.6823 62.3555 35.6603C62.5089 36.8642 62.2654 37.9711 61.625 38.9806C61.2845 39.2764 60.9082 39.5199 60.4961 39.711C59.2647 39.9173 58.0251 39.9615 56.7773 39.8439C55.4106 39.5839 54.6359 38.7649 54.4531 37.3868C54.3867 34.0226 54.3645 30.658 54.3867 27.2931C53.3684 27.2931 52.3503 27.2931 51.332 27.2931C51.3542 29.5071 51.332 31.7207 51.2656 33.9337C51.1023 36.4605 50.3054 38.7626 48.875 40.84C47.6797 42.2123 46.4844 43.5848 45.2891 44.9571C45.2448 50.1811 45.2005 55.4051 45.1562 60.629C44.5364 61.3373 43.9167 61.3373 43.2969 60.629C43.2526 60.452 43.2083 60.2748 43.1641 60.0978C43.0755 54.8739 43.0755 49.6498 43.1641 44.4259C43.2083 44.2489 43.2526 44.0717 43.2969 43.8946C44.7189 42.3401 46.0914 40.7463 47.4141 39.1134C48.4391 37.4936 49.0146 35.7228 49.1406 33.8009C49.2292 29.2853 49.2292 24.7696 49.1406 20.254C48.9244 18.8868 48.1497 18.0236 46.8164 17.6642C43.9831 17.5756 41.1497 17.5756 38.3164 17.6642C36.9544 18.2857 36.578 19.2818 37.1875 20.6525C37.4449 20.9986 37.7769 21.242 38.1836 21.3829C40.1316 21.4272 42.0794 21.4715 44.0273 21.5157C44.5585 21.6045 44.9347 21.8923 45.1562 22.379C45.2448 23.2645 45.2448 24.1498 45.1562 25.0353C45.0293 25.1786 44.9186 25.3334 44.8242 25.5001C43.343 26.1744 41.882 26.8827 40.4414 27.6251C37.6481 29.7815 36.2978 32.6369 36.3906 36.1915C35.8493 36.6609 35.2738 36.7051 34.6641 36.3243C34.1988 33.7583 34.6637 31.3676 36.0586 29.1525C35.7576 29.0587 35.4478 29.0809 35.1289 29.2189C33.4788 29.4952 32.0843 29.0304 30.9453 27.8243C29.4896 29.2782 27.7852 29.6545 25.832 28.9532C25.2402 28.6904 24.731 28.314 24.3047 27.8243C22.6874 29.3873 20.8502 29.6971 18.793 28.754C18.6825 29.9026 18.6161 31.0535 18.5938 32.2071C18.1277 32.7534 17.5743 32.864 16.9336 32.5392C16.7486 32.3837 16.6378 32.1844 16.6016 31.9415C16.5352 30.3927 16.513 28.8431 16.5352 27.2931C15.5169 27.2931 14.4987 27.2931 13.4805 27.2931C13.5026 30.658 13.4805 34.0226 13.4141 37.3868C13.2313 38.7649 12.4566 39.5839 11.0898 39.8439C9.84207 39.9615 8.60248 39.9173 7.37109 39.711C6.55208 39.4232 5.9987 38.8699 5.71094 38.0509C5.54644 37.2627 5.48003 36.4658 5.51172 35.6603C4.31558 35.6823 3.12027 35.6603 1.92578 35.5939C0.98379 35.2933 0.319728 34.6957 -0.0664062 33.8009C-0.0664062 26.8061 -0.0664062 19.8114 -0.0664062 12.8165C0.319728 11.9218 0.98379 11.3241 1.92578 11.0236C3.12027 10.9572 4.31558 10.935 5.51172 10.9571C5.35832 9.75315 5.60182 8.64638 6.24219 7.63683C6.77628 7.11897 7.4182 6.8312 8.16797 6.77355C9.42689 6.63278 10.6665 6.72133 11.8867 7.03918C12.76 7.51429 13.2691 8.24475 13.4141 9.23058C13.4805 12.6391 13.5026 16.048 13.4805 19.4571C14.4987 19.4571 15.5169 19.4571 16.5352 19.4571C16.5131 18.1726 16.5352 16.8887 16.6016 15.6056C17.1254 13.267 18.5863 12.0274 20.9844 11.8868C22.2762 11.9242 23.3608 12.4112 24.2383 13.3478C26.4613 11.4079 28.6747 11.4079 30.8789 13.3478C33.1019 11.4079 35.3154 11.4079 37.5195 13.3478C39.6792 11.462 41.8706 11.4178 44.0938 13.215C44.6431 13.8263 45.0193 14.5347 45.2227 15.34C48.2229 15.2025 50.2151 16.5306 51.1992 19.3243C52.258 19.4569 53.3205 19.5011 54.3867 19.4571C54.3115 18.7733 54.5329 18.22 55.0508 17.797C55.6209 17.6373 56.0858 17.7923 56.4453 18.2618C56.4895 24.5482 56.5339 30.8348 56.5781 37.1212C56.5927 37.4331 56.7477 37.6323 57.043 37.7189C57.9284 37.8074 58.8138 37.8074 59.6992 37.7189C59.8209 37.6692 59.9316 37.6028 60.0312 37.5196C60.2513 28.1861 60.2955 18.845 60.1641 9.49621C60.0534 9.20844 59.8542 9.00922 59.5664 8.89855C58.7695 8.81 57.9727 8.81 57.1758 8.89855C56.9857 8.96033 56.8309 9.07102 56.7109 9.23058C56.5381 11.1662 56.4497 13.1141 56.4453 15.0743C55.9911 15.6392 55.4377 15.7499 54.7852 15.4064C54.6577 15.2179 54.547 15.0187 54.4531 14.8087C54.3645 12.9493 54.3645 11.09 54.4531 9.23058C54.598 8.24475 55.1072 7.51429 55.9805 7.03918C57.4292 6.65467 58.8901 6.61039 60.3633 6.90636C61.229 7.17272 61.8266 7.72611 62.1562 8.56652C62.3208 9.35473 62.3872 10.1516 62.3555 10.9571C63.5516 10.935 64.7469 10.9572 65.9414 11.0236C66.8834 11.3241 67.5475 11.9218 67.9336 12.8165ZM8.30078 8.83214C9.09888 8.81007 9.89575 8.83221 10.6914 8.89855C10.9792 9.00922 11.1784 9.20844 11.2891 9.49621C11.3776 18.7045 11.3776 27.9129 11.2891 37.1212C11.2744 37.4331 11.1195 37.6323 10.8242 37.7189C9.9388 37.8074 9.05339 37.8074 8.16797 37.7189C7.92448 37.6525 7.76953 37.4975 7.70312 37.254C7.61458 28.0014 7.61458 18.7489 7.70312 9.49621C7.83926 9.20575 8.03848 8.9844 8.30078 8.83214ZM2.32422 13.0821C3.25496 13.0601 4.18464 13.0822 5.11328 13.1486C5.23496 13.1982 5.34565 13.2647 5.44531 13.3478C5.53386 19.9884 5.53386 26.629 5.44531 33.2696C5.37891 33.3361 5.3125 33.4025 5.24609 33.4689C4.27214 33.5574 3.29817 33.5574 2.32422 33.4689C2.13918 33.3133 2.02851 33.1141 1.99219 32.8712C1.90364 26.4962 1.90364 20.1212 1.99219 13.7462C2.04081 13.487 2.1515 13.2656 2.32422 13.0821ZM62.7539 13.0821C63.6847 13.0601 64.6143 13.0822 65.543 13.1486C65.728 13.3041 65.8387 13.5033 65.875 13.7462C65.9636 20.1212 65.9636 26.4962 65.875 32.8712C65.8387 33.1141 65.728 33.3133 65.543 33.4689C64.5691 33.5574 63.595 33.5574 62.6211 33.4689C62.5547 33.4025 62.4883 33.3361 62.4219 33.2696C62.3333 26.629 62.3333 19.9884 62.4219 13.3478C62.554 13.2726 62.6647 13.1841 62.7539 13.0821ZM20.5195 14.0118C21.8276 13.9262 22.6909 14.5016 23.1094 15.7384C23.198 19.0145 23.198 22.2904 23.1094 25.5665C22.3959 27.085 21.267 27.5054 19.7227 26.8282C19.2072 26.4394 18.8752 25.9303 18.7266 25.3009C18.638 22.1576 18.638 19.0145 18.7266 15.8712C18.9944 14.9173 19.5921 14.2976 20.5195 14.0118ZM27.1602 14.0118C28.4095 13.917 29.2728 14.4483 29.75 15.6056C29.8386 18.9259 29.8386 22.2462 29.75 25.5665C29.0365 27.085 27.9076 27.5054 26.3633 26.8282C25.8478 26.4394 25.5158 25.9303 25.3672 25.3009C25.2786 22.202 25.2786 19.1029 25.3672 16.004C25.5761 14.9767 26.1738 14.3127 27.1602 14.0118ZM33.8008 14.0118C35.1896 13.9622 36.0751 14.604 36.457 15.9376C36.4349 16.0482 36.4128 16.159 36.3906 16.2696C34.8115 17.5826 34.3687 19.2207 35.0625 21.1837C35.3247 21.841 35.7452 22.3722 36.3242 22.7775C36.4788 23.704 36.501 24.6336 36.3906 25.5665C35.6189 27.1805 34.4457 27.5567 32.8711 26.6954C32.394 26.2949 32.1064 25.7858 32.0078 25.1681C31.9192 22.1134 31.9192 19.0587 32.0078 16.004C32.2167 14.9767 32.8144 14.3127 33.8008 14.0118ZM40.4414 14.0118C41.5961 13.9248 42.4372 14.3897 42.9648 15.4064C41.5904 15.5169 40.2179 15.4948 38.8477 15.34C39.2302 14.7076 39.7614 14.265 40.4414 14.0118ZM13.4805 21.5821C14.4987 21.5821 15.5169 21.5821 16.5352 21.5821C16.5352 22.7775 16.5352 23.9728 16.5352 25.1681C15.5169 25.1681 14.4987 25.1681 13.4805 25.1681C13.4805 23.9728 13.4805 22.7775 13.4805 21.5821ZM51.332 21.5821C52.3503 21.5821 53.3684 21.5821 54.3867 21.5821C54.3867 22.7775 54.3867 23.9728 54.3867 25.1681C53.3684 25.1681 52.3503 25.1681 51.332 25.1681C51.332 23.9728 51.332 22.7775 51.332 21.5821ZM38.4492 26.3634C38.5669 25.4394 38.6113 24.5097 38.582 23.5743C40.0872 23.5743 41.5925 23.5743 43.0977 23.5743C43.1202 23.7499 43.076 23.9049 42.9648 24.0392C41.3603 24.6421 39.8552 25.4168 38.4492 26.3634Z" fill="#F17D09"/>
<path opacity="0.919" fill-rule="evenodd" clip-rule="evenodd" d="M17.1992 34.8633C17.8341 34.7492 18.2989 34.9706 18.5937 35.5274C18.5419 37.8066 19.206 39.843 20.5859 41.6368C21.5225 42.4854 22.4522 43.3267 23.375 44.1602C23.4636 45.7982 23.4636 47.4363 23.375 49.0743C23.0793 49.6535 22.6145 49.8527 21.9805 49.6719C21.6927 49.5613 21.4934 49.3621 21.3828 49.0743C21.3386 47.7461 21.2942 46.418 21.25 45.0899C17.801 42.7075 16.2958 39.4314 16.7344 35.2618C16.8864 35.1109 17.0414 34.9781 17.1992 34.8633Z" fill="#F17D09"/>
<path opacity="0.922" fill-rule="evenodd" clip-rule="evenodd" d="M21.9805 51.8633C22.6153 51.7492 23.0802 51.9706 23.375 52.5274C23.4636 55.1836 23.4636 57.8399 23.375 60.4961C22.6527 61.3977 21.9886 61.3534 21.3828 60.3633C21.2943 57.7513 21.2943 55.1394 21.3828 52.5274C21.519 52.2369 21.7182 52.0155 21.9805 51.8633Z" fill="#F17D09"/>
</g>
<defs>
<clipPath id="clip0_1_655">
<rect width="68" height="68" fill="white"/>
</clipPath>
</defs>
</svg>
