<svg width="73" height="70" viewBox="0 0 73 70" fill="none" xmlns="http://www.w3.org/2000/svg">
<circle cx="50.5" cy="22.5" r="22.5" fill="white" fill-opacity="0.11"/>
<path opacity="0.942" fill-rule="evenodd" clip-rule="evenodd" d="M42.5078 5C42.8308 5 43.1536 5 43.4766 5C43.6341 5.13804 43.7754 5.2995 43.9004 5.48438C43.9407 7.86589 43.9812 10.2474 44.0215 12.6289C44.1884 12.9448 44.4508 13.1264 44.8086 13.1738C45.938 13.2344 47.0683 13.2545 48.1992 13.2344C48.1553 11.2003 49.0837 9.84808 50.9844 9.17773C54.9401 9.097 58.8958 9.097 62.8516 9.17773C63.3019 9.33068 63.6046 9.63341 63.7598 10.0859C63.8405 11.418 63.8405 12.75 63.7598 14.082C63.5029 14.705 63.0388 15.0481 62.3672 15.1113C59.9052 15.1719 57.443 15.192 54.9805 15.1719C54.9602 22.034 54.9805 28.8959 55.041 35.7578C56.1454 36.0144 56.7912 36.7006 56.9785 37.8164C57.0188 41.2878 57.0593 44.7591 57.0996 48.2305C60.1829 50.7807 61.1112 53.9696 59.8848 57.7969C59.393 59.0422 58.6462 60.1119 57.6445 61.0059C58.9917 60.8605 59.8999 61.4055 60.3691 62.6406C60.4499 63.569 60.4499 64.4974 60.3691 65.4258C60.1733 66.2059 59.7092 66.7306 58.9766 67C41.1355 67 23.2942 67 5.45313 67C4.76921 66.7396 4.30501 66.2553 4.06055 65.5469C3.97982 64.5378 3.97982 63.5286 4.06055 62.5195C4.28255 61.8132 4.74675 61.3489 5.45313 61.127C7.39063 61.0866 9.32812 61.0462 11.2656 61.0059C5.00129 56.8467 2.80142 51.0947 4.66602 43.75C6.19627 39.5152 9.02179 36.4879 13.1426 34.668C13.1522 33.1273 13.2329 31.5935 13.3848 30.0664C13.7401 29.2668 14.3456 28.7824 15.2012 28.6133C15.2092 27.6723 15.2899 26.7438 15.4434 25.8281C15.9681 25.3438 16.4929 25.3438 17.0176 25.8281C17.191 26.7429 17.2515 27.6713 17.1992 28.6133C18.168 28.6133 19.1367 28.6133 20.1055 28.6133C20.1055 26.2722 20.1055 23.931 20.1055 21.5898C19.1367 21.5898 18.168 21.5898 17.1992 21.5898C17.292 23.0448 16.7066 23.4485 15.4434 22.8008C15.284 22.4147 15.2235 22.011 15.2617 21.5898C13.8616 21.7326 12.5296 21.5106 11.2656 20.9238C9.69518 19.5343 9.29154 17.839 10.0547 15.8379C10.9952 13.5872 12.6905 12.3965 15.1406 12.2656C18.9504 12.9267 22.7446 13.6734 26.5234 14.5059C28.2931 15.2794 29.0802 16.6316 28.8848 18.5625C28.6048 20.0532 27.737 21.0018 26.2812 21.4082C24.8737 21.5695 23.461 21.63 22.043 21.5898C22.043 23.9714 22.043 26.3528 22.043 28.7344C22.8053 28.8032 23.3905 29.1664 23.7988 29.8242C23.9715 31.0659 24.0321 32.3173 23.9805 33.5781C26.0427 33.5373 28.1013 33.5979 30.1562 33.7598C31.4063 33.9343 32.6172 34.2572 33.7891 34.7285C37.926 37.0592 42.0432 39.4205 46.1406 41.8125C46.2415 40.3206 46.302 38.8272 46.3223 37.332C46.6268 36.4625 47.2323 35.9378 48.1387 35.7578C48.179 32.2864 48.2194 28.8151 48.2598 25.3438C48.5544 24.6235 49.059 24.4418 49.7734 24.7988C49.8743 24.8997 49.9753 25.0007 50.0762 25.1016C50.1367 28.6534 50.1569 32.2055 50.1367 35.7578C51.1055 35.7578 52.0742 35.7578 53.043 35.7578C53.043 28.8958 53.043 22.0339 53.043 15.1719C52.0742 15.1719 51.1055 15.1719 50.1367 15.1719C50.1569 17.3923 50.1367 19.6124 50.0762 21.832C49.6513 22.3301 49.1467 22.431 48.5625 22.1348C48.3938 21.993 48.2928 21.8113 48.2598 21.5898C48.1992 19.4508 48.179 17.3116 48.1992 15.1719C46.7807 15.2155 45.3679 15.155 43.9609 14.9902C42.9091 14.6648 42.2834 13.9584 42.084 12.8711C42.0032 10.4492 42.0032 8.02734 42.084 5.60547C42.2047 5.38471 42.346 5.18288 42.5078 5ZM51.3477 11.0547C54.8594 11.0547 58.3711 11.0547 61.8828 11.0547C61.8828 11.7812 61.8828 12.5078 61.8828 13.2344C57.9675 13.2344 54.052 13.2344 50.1367 13.2344C50.0413 12.2131 50.4449 11.4865 51.3477 11.0547ZM14.5352 14.2031C18.271 14.7767 21.9846 15.4831 25.6758 16.3223C27.0319 16.9195 27.3144 17.8478 26.5234 19.1074C26.2054 19.3673 25.8422 19.5287 25.4336 19.5918C21.1896 19.7096 16.9513 19.6693 12.7187 19.4707C11.841 18.9792 11.4979 18.2325 11.6895 17.2305C12.0413 15.6478 12.9899 14.6387 14.5352 14.2031ZM15.3828 30.5508C17.5629 30.5306 19.7425 30.5508 21.9219 30.6113C22.0408 31.5899 22.0812 32.5789 22.043 33.5781C20.67 33.5579 19.2975 33.5781 17.9258 33.6387C17.0216 33.6884 16.1336 33.8298 15.2617 34.0625C15.1206 32.9748 15.1004 31.885 15.2012 30.793C15.288 30.7271 15.3485 30.6463 15.3828 30.5508ZM17.9258 35.5156C21.5992 35.4954 25.2723 35.5156 28.9453 35.5762C30.8307 35.7337 32.6067 36.2585 34.2734 37.1504C41.6801 41.4793 49.0669 45.8386 56.4336 50.2285C58.9084 52.8949 59.1305 55.7406 57.0996 58.7656C55.8704 60.1773 54.3164 60.9241 52.4375 61.0059C41.0547 61.0866 29.6719 61.0866 18.2891 61.0059C12.4738 60.5172 8.53825 57.5504 6.48242 52.1055C4.9762 45.8849 6.85315 40.9806 12.1133 37.3926C13.9341 36.3531 15.8717 35.7275 17.9258 35.5156ZM48.3203 37.6953C50.5294 37.6558 52.7293 37.6963 54.9199 37.8164C55.1194 40.8735 55.1598 43.9412 55.041 47.0195C52.7607 45.718 50.5002 44.386 48.2598 43.0234C48.1611 41.2384 48.1812 39.4623 48.3203 37.6953ZM18.0469 45.4453C19.485 45.3163 20.5344 45.8814 21.1953 47.1406C20.31 47.2413 19.422 47.3018 18.5312 47.3223C17.7862 47.4997 17.5237 47.9638 17.7441 48.7148C17.845 48.8965 17.9863 49.0378 18.168 49.1387C19.2175 49.179 20.2669 49.2194 21.3164 49.2598C20.2228 51.1578 18.7294 51.5614 16.8359 50.4707C15.3787 48.9444 15.419 47.451 16.957 45.9902C17.3315 45.803 17.6947 45.6214 18.0469 45.4453ZM31.8516 47.5039C34.0312 47.5039 36.2109 47.5039 38.3906 47.5039C38.3906 48.0286 38.3906 48.5534 38.3906 49.0781C36.2109 49.0781 34.0312 49.0781 31.8516 49.0781C31.8516 48.5534 31.8516 48.0286 31.8516 47.5039ZM50.5 51.8633C51.9832 51.7065 53.0125 52.3119 53.5879 53.6797C53.7773 56.1142 52.6672 57.1839 50.2578 56.8887C48.5498 56.0026 48.126 54.6907 48.9863 52.9531C49.3858 52.4225 49.8904 52.0592 50.5 51.8633ZM5.9375 63.0039C23.4154 62.9837 40.8933 63.0039 58.3711 63.0645C58.449 63.397 58.4893 63.74 58.4922 64.0938C58.4847 64.4707 58.4039 64.8138 58.25 65.123C40.8933 65.2038 23.5364 65.2038 6.17969 65.123C5.94652 64.4527 5.86579 63.7463 5.9375 63.0039Z" fill="#F17D09"/>
<path opacity="0.93" fill-rule="evenodd" clip-rule="evenodd" d="M17.8047 37.6953C23.0423 37.6384 26.655 40.0198 28.6426 44.8399C28.8815 45.5902 29.0429 46.357 29.127 47.1406C29.3741 47.2524 29.6365 47.2927 29.9141 47.2617C29.8916 46.3977 30.2953 45.8528 31.125 45.627C33.7488 45.5462 36.3724 45.5462 38.9961 45.627C39.4947 45.7246 39.8782 45.987 40.1465 46.4141C40.3383 47.5352 40.3787 48.6653 40.2676 49.8047C40.0052 50.5117 39.5006 50.895 38.7539 50.9551C36.2917 51.0359 33.8294 51.0359 31.3672 50.9551C30.3847 50.7879 29.9003 50.2026 29.9141 49.1992C29.6593 49.163 29.4171 49.2034 29.1875 49.3203C28.0959 55.1751 24.5842 58.3639 18.6524 58.8867C13.4423 58.5753 10.0315 55.9515 8.41996 51.0156C8.15813 49.9063 8.58196 49.4018 9.69144 49.502C9.80239 49.5473 9.90331 49.6078 9.99418 49.6836C11.5875 55.0707 15.1598 57.3917 20.711 56.6465C24.4426 55.5195 26.582 53.0371 27.1289 49.1992C25.8372 49.1992 24.5456 49.1992 23.2539 49.1992C22.9341 50.7903 22.046 51.9407 20.5899 52.6504C17.7685 53.5901 15.6494 52.7627 14.2325 50.168C13.3957 47.5923 14.1021 45.554 16.3516 44.0528C19.0287 42.9408 21.1882 43.5664 22.8301 45.9297C23.0328 46.3561 23.174 46.8 23.2539 47.2617C24.5456 47.2617 25.8372 47.2617 27.1289 47.2617C26.65 43.8234 24.7933 41.4621 21.5586 40.1778C17.29 38.9633 13.8791 40.154 11.3262 43.75C10.7732 44.7022 10.3493 45.7113 10.0547 46.7774C9.4701 47.2862 8.92517 47.2458 8.41996 46.6563C8.62079 44.1758 9.65009 42.097 11.5078 40.4199C13.3413 38.8771 15.4402 37.9689 17.8047 37.6953ZM18.0469 45.4453C17.6948 45.6214 17.3315 45.803 16.9571 45.9903C15.4191 47.451 15.3787 48.9445 16.836 50.4707C18.7294 51.5614 20.2228 51.1578 21.3164 49.2598C20.2669 49.2195 19.2175 49.179 18.168 49.1387C17.9864 49.0378 17.845 48.8965 17.7442 48.7149C17.5238 47.9638 17.7862 47.4997 18.5313 47.3223C19.4221 47.3018 20.31 47.2413 21.1953 47.1406C20.5344 45.8814 19.485 45.3164 18.0469 45.4453ZM31.8516 47.5039C31.8516 48.0286 31.8516 48.5534 31.8516 49.0781C34.0313 49.0781 36.211 49.0781 38.3907 49.0781C38.3907 48.5534 38.3907 48.0286 38.3907 47.5039C36.211 47.5039 34.0313 47.5039 31.8516 47.5039Z" fill="#F17D09"/>
<path opacity="0.927" fill-rule="evenodd" clip-rule="evenodd" d="M50.2577 49.9258C52.9448 49.7303 54.7007 50.9009 55.5253 53.4375C55.803 56.9938 54.1682 58.8304 50.621 58.9472C47.6628 58.3014 46.351 56.4649 46.6855 53.4375C47.2208 51.5902 48.4116 50.4196 50.2577 49.9258ZM50.4999 51.8633C49.8904 52.0592 49.3858 52.4225 48.9863 52.9531C48.1259 54.6907 48.5497 56.0026 50.2577 56.8886C52.6672 57.1839 53.7772 56.1141 53.5878 53.6797C53.0124 52.3119 51.9831 51.7064 50.4999 51.8633Z" fill="#F17D09"/>
</svg>
