<svg width="68" height="68" viewBox="0 0 68 68" fill="none" xmlns="http://www.w3.org/2000/svg">
<g id="icon-weights" clip-path="url(#clip0_1_685)">
<g id="Group">
<path id="Vector" opacity="0.935" fill-rule="evenodd" clip-rule="evenodd" d="M67.9336 13.6133C67.9336 14.7644 67.9336 15.9153 67.9336 17.0664C67.7142 17.8973 67.4708 18.7384 67.2031 19.5898C65.9142 22.3668 64.6082 25.1338 63.2852 27.8906C67.1754 33.7976 67.4632 39.8849 64.1485 46.1523C62.564 48.7108 60.461 50.7252 57.8399 52.1953C54.9622 52.2839 52.0847 52.2839 49.207 52.1953C48.4988 51.5313 48.4988 50.8672 49.207 50.2031C51.8191 50.1589 54.431 50.1145 57.043 50.0703C63.0132 46.0268 65.1604 40.4708 63.4844 33.4023C61.1268 27.0421 56.5448 23.6333 49.7383 23.1758C43.3082 23.4997 38.8146 26.5986 36.2578 32.4727C35.5754 33.1357 34.9114 33.0913 34.2656 32.3398C34.1771 32.03 34.1771 31.72 34.2656 31.4102C34.7881 30.1213 35.43 28.9039 36.1914 27.7578C34.8673 24.9103 33.5612 22.0548 32.2735 19.1914C30.7749 14.171 31.9481 9.89877 35.793 6.375C37.6922 4.8562 39.8614 4.01504 42.3008 3.85157C47.3034 3.76302 52.306 3.76302 57.3086 3.85157C61.8446 4.31447 65.0985 6.59442 67.0703 10.6914C67.4438 11.657 67.7316 12.631 67.9336 13.6133ZM42.3008 6.04297C47.6173 5.98208 52.9298 6.04848 58.2383 6.24219C62.315 7.21997 64.772 9.76553 65.6094 13.8789C65.8836 15.7763 65.618 17.5914 64.8125 19.3242C63.8002 21.5653 62.7377 23.7788 61.625 25.9648C61.0186 25.3584 60.4209 24.7608 59.832 24.1719C60.8907 21.8555 61.931 19.5313 62.9531 17.1992C63.731 13.5962 62.5135 10.9178 59.3008 9.16407C57.7426 8.56988 56.1489 8.43706 54.5195 8.76563C53.958 9.46745 54.0022 10.1315 54.6524 10.7578C55.4492 10.8021 56.2461 10.8464 57.043 10.8906C60.1633 11.6678 61.3808 13.6379 60.6953 16.8008C59.7577 18.8975 58.7838 20.9783 57.7735 23.043C54.0227 21.0097 50.0604 20.4564 45.8867 21.3828C44.4563 21.7706 43.084 22.2577 41.7695 22.8438C40.6707 20.6978 39.6746 18.5064 38.7813 16.2695C38.4101 13.6681 39.4504 11.9194 41.9024 11.0234C45.4386 10.8523 48.9803 10.7638 52.5274 10.7578C53.456 9.91556 53.3674 9.20723 52.2617 8.63282C48.9856 8.54427 45.7097 8.54427 42.4336 8.63282C39.5538 9.03325 37.6281 10.6049 36.6563 13.3477C36.5323 13.993 36.4217 14.6349 36.3242 15.2734C36.4217 15.912 36.5323 16.5539 36.6563 17.1992C37.6602 19.5171 38.7005 21.8191 39.7774 24.1055C39.1586 24.7018 38.5167 25.2773 37.8516 25.832C36.5026 23.09 35.2631 20.3009 34.1328 17.4648C33.3701 12.7265 35.0745 9.20692 39.2461 6.90625C40.2516 6.51151 41.2699 6.22374 42.3008 6.04297Z" fill="#F17D09"/>
</g>
<g id="Group_2">
<path id="Vector_2" opacity="0.929" fill-rule="evenodd" clip-rule="evenodd" d="M-0.0664062 41.9024C-0.0664062 40.6185 -0.0664062 39.3347 -0.0664062 38.0508C0.679892 32.7276 3.15906 28.4112 7.37109 25.1016C10.0437 23.028 13.0098 22.4525 16.2695 23.3751C18.8732 24.5 21.441 25.6953 23.9727 26.961C26.4001 28.6274 27.7724 30.9294 28.0898 33.8672C28.0465 35.0186 27.4711 35.417 26.3633 35.0626C26.2526 34.9519 26.1419 34.8412 26.0312 34.7305C25.8087 31.9562 24.5026 29.8976 22.1133 28.5547C20.5065 27.9361 18.9128 27.9803 17.332 28.6876C14.0222 30.3153 11.6094 32.8166 10.0938 36.1915C9.52719 37.5812 9.0402 38.9979 8.63281 40.4415C7.64389 41.0411 6.95769 40.7977 6.57422 39.711C7.81416 33.3835 11.3558 28.9123 17.1992 26.2969C15.0052 24.9905 12.7473 24.8576 10.4258 25.8985C5.76536 28.6853 3.04271 32.7803 2.25781 38.1837C2.14815 39.694 2.19243 41.1993 2.39062 42.6993C3.05339 45.3534 4.66926 47.102 7.23828 47.9454C6.49873 46.2749 6.21096 44.5262 6.375 42.6993C6.7752 42.0306 7.32858 41.8756 8.03516 42.2344C8.24086 42.3957 8.39581 42.5949 8.5 42.8321C8.39779 45.4934 9.26107 47.7732 11.0898 49.6719C12.2029 50.4488 13.4425 50.8694 14.8086 50.9337C15.893 50.7492 16.9555 50.4836 17.9961 50.1368C19.0546 50.2736 19.3866 50.8491 18.9922 51.8633C17.6206 52.7375 16.1155 53.1359 14.4766 53.0587C13.7816 53.0652 13.0954 52.9988 12.418 52.8594C9.64166 51.6927 6.89686 50.4531 4.18359 49.1407C1.69033 47.3643 0.273664 44.9515 -0.0664062 41.9024Z" fill="#F17D09"/>
</g>
<g id="Group_3">
<path id="Vector_3" opacity="0.926" fill-rule="evenodd" clip-rule="evenodd" d="M48.9415 29.8165C53.7564 29.7978 56.6118 32.1442 57.5079 36.8556C57.6223 41.3432 55.5194 44.1544 51.1993 45.2892C50.5795 45.3778 49.9598 45.3778 49.3399 45.2892C48.6317 44.6251 48.6317 43.961 49.3399 43.297C52.8644 43.0262 54.8566 41.1446 55.3165 37.6525C55.0114 34.6249 53.3735 32.7875 50.4024 32.1407C47.5625 32.014 45.5703 33.2536 44.4259 35.8595C43.0861 36.334 42.4884 35.8692 42.6329 34.465C43.9213 31.7968 46.0242 30.2472 48.9415 29.8165Z" fill="#F17D09"/>
</g>
<g id="Group_4">
<path id="Vector_4" opacity="0.932" fill-rule="evenodd" clip-rule="evenodd" d="M33.4023 33.8008C34.5982 33.8341 35.7492 34.0777 36.8554 34.5312C39.5247 35.7109 42.1365 36.9948 44.6913 38.3828C47.162 40.7149 48.313 43.5925 48.1444 47.0156C47.9386 53.6721 45.1053 58.8517 39.6444 62.5547C36.9279 64.1563 34.0945 64.4219 31.1444 63.3516C28.6935 62.2367 26.2585 61.0858 23.8398 59.8984C21.4389 58.0416 20.133 55.5846 19.9218 52.5273C19.6815 50.0885 19.9693 47.7201 20.7851 45.4219C19.0143 44.448 17.2434 43.4739 15.4726 42.5C14.7222 41.8843 14.3681 41.0874 14.4101 40.1094C14.5166 37.9868 15.5349 36.5258 17.4648 35.7266C17.8632 35.638 18.2616 35.638 18.6601 35.7266C20.543 36.7249 22.4244 37.721 24.3046 38.7148C25.0736 38.0789 25.8041 37.3928 26.496 36.6562C28.5218 35.0003 30.824 34.0485 33.4023 33.8008ZM33.0038 36.0586C34.4747 36.0692 35.8472 36.4455 37.121 37.1875C32.8634 39.0101 29.7867 42.0426 27.8905 46.2852C26.0385 50.4334 25.7507 54.6392 27.0273 58.9023C24.1512 57.8173 22.5353 55.7365 22.1796 52.6602C21.814 46.2873 24.1824 41.2182 29.2851 37.4531C30.4534 36.7617 31.693 36.2969 33.0038 36.0586ZM17.8632 37.918C19.581 38.777 21.2633 39.7067 22.9101 40.707C22.4434 41.5524 21.9785 42.3935 21.5155 43.2305C19.9 42.3343 18.3063 41.4046 16.7343 40.4414C16.7385 39.4323 17.1148 38.5912 17.8632 37.918ZM38.8476 39.1133C42.3684 38.8935 44.6042 40.4872 45.5546 43.8945C46.5414 50.0092 44.7484 55.1669 40.1757 59.3672C38.5912 60.8012 36.7319 61.6201 34.5976 61.8242C31.8072 61.5352 29.9256 60.0743 28.953 57.4414C27.8294 51.9301 29.1133 47.0603 32.8046 42.832C34.4463 40.961 36.4607 39.7214 38.8476 39.1133Z" fill="#F17D09"/>
</g>
</g>
<defs>
<clipPath id="clip0_1_685">
<rect width="68" height="68" fill="white"/>
</clipPath>
</defs>
</svg>
