<svg width="78" height="69" viewBox="0 0 78 69" fill="none" xmlns="http://www.w3.org/2000/svg">
<circle cx="55.5" cy="22.5" r="22.5" fill="white" fill-opacity="0.11"/>
<g clip-path="url(#clip0_1_698)">
<path opacity="0.935" fill-rule="evenodd" clip-rule="evenodd" d="M67.9336 8.63671C67.9336 10.2305 67.9336 11.8242 67.9336 13.418C67.2837 14.095 66.6419 14.095 66.0078 13.418C65.9636 12.1341 65.9192 10.8503 65.875 9.5664C65.8132 9.37637 65.7025 9.22142 65.543 9.10156C63.0638 9.01301 60.5847 9.01301 58.1055 9.10156C58.0391 9.16796 57.9727 9.23437 57.9062 9.30078C57.7964 14.7515 57.8185 20.1968 57.9727 25.6367C58.0424 25.7286 58.131 25.795 58.2383 25.8359C60.6731 25.9245 63.1081 25.9245 65.543 25.8359C65.7025 25.716 65.8132 25.5611 65.875 25.3711C65.9192 22.5378 65.9636 19.7044 66.0078 16.8711C66.6494 16.3461 67.2914 16.3461 67.9336 16.8711C67.9336 19.97 67.9336 23.069 67.9336 26.168C67.5362 27.1177 66.8278 27.7154 65.8086 27.9609C63.1966 28.0495 60.5847 28.0495 57.9727 27.9609C56.7696 27.7761 56.0392 27.0899 55.7812 25.9023C55.7148 24.3093 55.6927 22.7155 55.7148 21.1211C54.6072 21.099 53.5005 21.1211 52.3945 21.1875C51.7299 21.972 50.9552 22.6139 50.0703 23.1133C50.4539 25.7025 50.8744 28.2923 51.332 30.8828C51.3512 31.7934 50.9084 32.1918 50.0039 32.0781C49.615 31.9108 49.3716 31.623 49.2734 31.2148C48.7798 28.6073 48.3149 25.9953 47.8789 23.3789C47.9513 22.044 48.6154 21.1365 49.8711 20.6562C50.3407 20.2311 50.7613 19.7663 51.1328 19.2617C51.2612 17.2572 51.2169 15.265 51 13.2852C50.7459 13.0611 50.4581 12.9947 50.1367 13.0859C49.7686 13.333 49.4587 13.6429 49.207 14.0156C48.3629 14.2573 47.743 13.9917 47.3477 13.2187C46.6548 12.9298 46.1678 13.1512 45.8867 13.8828C44.997 14.3097 44.3329 14.0883 43.8945 13.2187C43.5403 12.9531 43.1862 12.9531 42.832 13.2187C42.3936 14.0883 41.7296 14.3097 40.8398 13.8828C40.3775 12.8958 39.7799 12.7851 39.0469 13.5508C38.9583 15.4544 38.9583 17.3581 39.0469 19.2617C39.7019 20.2258 40.5652 20.9563 41.6367 21.4531C42.4647 22.0909 42.8631 22.932 42.832 23.9766C42.4362 30.1986 42.0156 36.4186 41.5703 42.6367C41.3117 43.1755 40.8911 43.3748 40.3086 43.2344C35.0703 40.7719 29.7578 40.5949 24.3711 42.7031C22.8354 43.4487 21.4629 44.4226 20.2539 45.625C19.3319 45.9828 18.7564 45.6729 18.5273 44.6953C18.5938 44.4961 18.6602 44.2969 18.7266 44.0977C19.5036 43.2568 20.3669 42.5263 21.3164 41.9062C18.3251 38.889 14.7391 37.8265 10.5586 38.7187C4.52742 40.7238 1.71622 44.9074 2.125 51.2695C3.08647 56.0382 5.89767 59.115 10.5586 60.5C14.7223 61.3521 18.3082 60.2896 21.3164 57.3125C20.4434 56.7329 19.6687 56.0468 18.9922 55.2539C18.8911 53.9832 19.4445 53.5625 20.6523 53.9922C22.6765 55.8897 25.0672 57.085 27.8242 57.5781C29.1424 57.8147 30.4705 57.9695 31.8086 58.043C33.3144 57.8877 34.8196 57.7769 36.3242 57.7109C36.9707 58.265 37.0151 58.8627 36.457 59.5039C31.9971 60.524 27.6363 60.1698 23.375 58.4414C18.911 62.8938 13.7093 64.0227 7.76953 61.8281C3.41364 59.7099 0.801658 56.2789 -0.0664062 51.5352C-0.0664062 50.2513 -0.0664062 48.9675 -0.0664062 47.6836C1.21151 41.6022 4.88599 37.8613 10.957 36.4609C15.8281 35.8414 19.9674 37.2801 23.375 40.7773C28.7701 38.6304 34.1932 38.542 39.6445 40.5117C40.0149 34.8447 40.347 29.178 40.6406 23.5117C39.5306 22.8892 38.5345 22.1145 37.6523 21.1875C36.6351 21.1211 35.6169 21.099 34.5977 21.1211C34.6198 22.6711 34.5977 24.2207 34.5312 25.7695C34.332 27.0312 33.6016 27.7617 32.3398 27.9609C29.544 28.0876 26.7549 28.0434 23.9727 27.8281C23.0586 27.442 22.5053 26.7558 22.3125 25.7695C22.2239 20.2356 22.2239 14.7019 22.3125 9.16796C22.4998 7.96257 23.186 7.2321 24.3711 6.97656C27.0716 6.88801 29.7722 6.88801 32.4727 6.97656C33.6577 7.2321 34.344 7.96257 34.5312 9.16796C34.5977 10.7168 34.6198 12.2663 34.5977 13.8164C35.3503 13.8164 36.1028 13.8164 36.8555 13.8164C37.2536 11.4495 38.626 10.542 40.9727 11.0937C41.1941 11.2044 41.4153 11.3151 41.6367 11.4258C42.7828 10.7184 43.9338 10.7184 45.0898 11.4258C46.283 10.7259 47.4783 10.7259 48.6758 11.4258C50.7411 10.4098 52.2685 10.9411 53.2578 13.0195C53.3236 13.2815 53.3457 13.5472 53.3242 13.8164C54.1211 13.8164 54.918 13.8164 55.7148 13.8164C55.6927 12.1778 55.7148 10.5398 55.7812 8.90234C56.0037 8.06014 56.5128 7.46248 57.3086 7.10937C60.1795 6.89394 63.0571 6.84967 65.9414 6.97656C66.8318 7.27021 67.4958 7.8236 67.9336 8.63671ZM24.7695 9.03515C27.2048 9.01303 29.6398 9.03517 32.0742 9.10156C32.2292 9.16796 32.3398 9.27864 32.4062 9.43359C32.4948 14.7903 32.4948 20.1472 32.4062 25.5039C32.3398 25.6589 32.2292 25.7695 32.0742 25.8359C29.6394 25.9245 27.2044 25.9245 24.7695 25.8359C24.6589 25.7253 24.5481 25.6145 24.4375 25.5039C24.3489 20.1472 24.3489 14.7903 24.4375 9.43359C24.5302 9.27546 24.6408 9.14265 24.7695 9.03515ZM34.5977 15.9414C35.3503 15.9414 36.1028 15.9414 36.8555 15.9414C36.8555 16.9597 36.8555 17.9778 36.8555 18.9961C36.1028 18.9961 35.3503 18.9961 34.5977 18.9961C34.5977 17.9778 34.5977 16.9597 34.5977 15.9414ZM53.3242 15.9414C54.1211 15.9414 54.918 15.9414 55.7148 15.9414C55.7148 16.9597 55.7148 17.9778 55.7148 18.9961C54.918 18.9961 54.1211 18.9961 53.3242 18.9961C53.3242 17.9778 53.3242 16.9597 53.3242 15.9414Z" fill="#F17D09"/>
<path opacity="0.905" fill-rule="evenodd" clip-rule="evenodd" d="M29.9493 31.7461C30.6455 31.5828 31.1545 31.8041 31.4766 32.4101C31.5652 33.5168 31.5652 34.6237 31.4766 35.7304C31.1532 36.3578 30.644 36.5571 29.9493 36.3281C29.7435 36.1669 29.5887 35.9676 29.4844 35.7304C29.3958 34.6237 29.3958 33.5168 29.4844 32.4101C29.6168 32.168 29.7718 31.9466 29.9493 31.7461Z" fill="#F17D09"/>
<path opacity="0.895" fill-rule="evenodd" clip-rule="evenodd" d="M23.9726 33.4726C24.3032 33.4458 24.6131 33.5122 24.9023 33.6718C25.6328 34.4023 26.3632 35.1327 27.0937 35.8632C27.262 37.2006 26.7087 37.6655 25.4335 37.2577C24.7916 36.6159 24.1496 35.9738 23.5078 35.332C23.0493 34.5602 23.2041 33.9404 23.9726 33.4726Z" fill="#F17D09"/>
<path opacity="0.896" fill-rule="evenodd" clip-rule="evenodd" d="M36.3243 33.4727C37.6244 33.5523 38.0006 34.1722 37.4532 35.332C36.8113 35.9739 36.1693 36.6159 35.5274 37.2578C34.1329 37.6341 33.6238 37.125 34.0001 35.7305C34.7609 34.9473 35.5356 34.1946 36.3243 33.4727Z" fill="#F17D09"/>
<path opacity="0.924" fill-rule="evenodd" clip-rule="evenodd" d="M50.8007 34.535C51.2618 34.4854 51.6603 34.6182 51.996 34.9335C52.8557 38.8514 53.6306 42.7916 54.3203 46.7538C54.6119 50.2669 53.1288 52.6796 49.871 53.9921C48.1887 54.3463 46.5065 54.7004 44.8242 55.0546C43.5068 56.4846 41.9573 57.5691 40.1757 58.3085C39.2458 58.0425 38.9581 57.4668 39.3124 56.5819C40.9418 55.7063 42.3805 54.5774 43.6289 53.1952C45.6677 52.7254 47.7042 52.2384 49.7382 51.7343C51.5927 50.7036 52.4117 49.1321 52.1953 47.0194C51.4834 43.2608 50.7971 39.4978 50.1367 35.7304C50.1203 35.1865 50.3417 34.7881 50.8007 34.535Z" fill="#F17D09"/>
</g>
<defs>
<clipPath id="clip0_1_698">
<rect width="68" height="68" fill="white" transform="translate(0 1)"/>
</clipPath>
</defs>
</svg>
