<svg width="342" height="47" viewBox="0 0 342 47" fill="none" xmlns="http://www.w3.org/2000/svg">
<path fill-rule="evenodd" clip-rule="evenodd" d="M0 0L12.371 23.1538H25.2177V25.044L15.2258 43H43.7742L34.2581 25.044V23.1538H46.629L59 0H38.0645L30.4516 15.5934H29.0242C29.0242 15.5934 27.2403 12.488 25.6503 10.8681C25.0745 10.2815 23.7903 9.45055 23.7903 9.45055C23.7903 9.45055 24.2427 7.71257 24.0931 6.61538C23.6954 3.69921 20.4597 0 20.4597 0H0ZM25.6503 19.3736H15.2258L8.08871 4.25275H18.0806C18.0806 4.25275 20.502 6.60607 20.4597 8.50549C20.4283 9.91051 19.5081 11.3407 19.5081 11.3407C19.5081 11.3407 22.0507 11.6097 23.3145 12.7582C24.3585 13.707 24.7419 16.0659 24.7419 16.0659L25.6503 19.3736ZM50.9113 4.25275H40.9194L34.2581 19.3736H43.7742L50.9113 4.25275ZM35.6855 38.2747H22.8387L29.0242 27.4066H30.4516L35.6855 38.2747Z" fill="white"/>
<path d="M73.04 7.264H68.528L66.448 4.88H81.168V7.264H76.176V14H73.04V7.264ZM94.0655 8.224V4.88H97.1855V14H94.0655V10.624H87.5855V14H84.4655V7.264L82.3855 4.88H87.5855V8.224H94.0655ZM112.513 4.88V7.264H100.481L98.4011 4.88H112.513ZM100.481 11.584H112.497V14H100.481V11.584ZM100.481 8.224H109.457V10.624H100.481V8.224ZM120.731 14V8.24H131.099V7.264H120.731L118.651 4.88H134.235V8.304C134.235 8.32533 134.219 8.384 134.187 8.48C134.155 8.576 134.112 8.68267 134.059 8.8C134.016 8.91733 133.963 9.02933 133.899 9.136C133.846 9.24267 133.792 9.31733 133.739 9.36C133.803 9.43467 133.862 9.52533 133.915 9.632C133.979 9.728 134.032 9.824 134.075 9.92C134.128 10.016 134.166 10.1067 134.187 10.192C134.219 10.2667 134.235 10.32 134.235 10.352V12.016C134.235 12.3147 134.171 12.5867 134.043 12.832C133.926 13.0667 133.766 13.2747 133.563 13.456C133.36 13.6267 133.136 13.76 132.891 13.856C132.646 13.952 132.4 14 132.155 14H120.731ZM123.851 10.624V11.616H131.099V10.624H123.851ZM149.56 4.88V7.264H137.528L135.448 4.88H149.56ZM137.528 11.584H149.544V14H137.528V11.584ZM137.528 8.224H146.504V10.624H137.528V8.224ZM153.256 10.64C152.979 10.64 152.712 10.608 152.456 10.544C152.2 10.48 151.971 10.3733 151.768 10.224C151.565 10.0747 151.4 9.88267 151.272 9.648C151.155 9.40267 151.096 9.104 151.096 8.752V6.304C151.096 6.15467 151.149 6 151.256 5.84C151.373 5.66933 151.512 5.51467 151.672 5.376C151.843 5.22667 152.024 5.10933 152.216 5.024C152.419 4.928 152.611 4.88 152.792 4.88H164.104V7.28H154.216V8.24H161.928C162.205 8.24 162.472 8.272 162.728 8.336C162.995 8.4 163.229 8.50667 163.432 8.656C163.635 8.80533 163.795 8.99733 163.912 9.232C164.04 9.46667 164.104 9.76 164.104 10.112V12.592C164.104 12.7413 164.051 12.9013 163.944 13.072C163.837 13.232 163.699 13.3813 163.528 13.52C163.368 13.6587 163.187 13.776 162.984 13.872C162.792 13.9573 162.6 14 162.408 14H151.096V11.6H160.984V10.64H153.256ZM172.009 7.264H167.497L165.417 4.88H180.137V7.264H175.145V14H172.009V7.264ZM199.422 4.88C200.254 4.88 200.846 5.05067 201.198 5.392C201.561 5.73333 201.742 6.176 201.742 6.72V12.016C201.742 12.624 201.513 13.1093 201.054 13.472C200.606 13.824 199.982 14 199.182 14H190.75C189.95 14 189.321 13.824 188.862 13.472C188.414 13.1093 188.19 12.624 188.19 12.016V8.56H191.326V11.616H198.606V7.264H188.19V6.72C188.19 6.176 188.366 5.73333 188.718 5.392C189.081 5.05067 189.678 4.88 190.51 4.88H199.422ZM213.441 8.224V10.624H207.601V14H204.481V8.224H213.441ZM202.401 4.88H216.497V7.264H204.481L202.401 4.88ZM234.038 4.88H237.158V12.592C237.158 12.7413 237.104 12.9013 236.998 13.072C236.891 13.232 236.752 13.3813 236.582 13.52C236.422 13.6587 236.24 13.776 236.038 13.872C235.846 13.9573 235.654 14 235.462 14H224.534V11.6H234.038V10.64H226.662C226.384 10.64 226.118 10.608 225.862 10.544C225.616 10.48 225.392 10.3733 225.19 10.224C224.987 10.0747 224.827 9.88267 224.71 9.648C224.592 9.40267 224.534 9.104 224.534 8.752V4.88H227.654V8.24H234.038V4.88ZM249.922 4.88C250.754 4.88 251.346 5.05067 251.698 5.392C252.061 5.73333 252.242 6.176 252.242 6.72V12.016C252.242 12.624 252.013 13.1093 251.554 13.472C251.106 13.824 250.482 14 249.682 14H241.25C240.45 14 239.821 13.824 239.362 13.472C238.914 13.1093 238.69 12.624 238.69 12.016V8.56H241.826V11.616H249.106V7.264H238.69V6.72C238.69 6.176 238.866 5.73333 239.218 5.392C239.581 5.05067 240.178 4.88 241.01 4.88H249.922ZM253.784 4.88H256.904V11.6H264.024V4.88H267.16V14H253.784V4.88ZM280.946 4.88C281.714 4.88 282.263 5.05067 282.594 5.392C282.925 5.73333 283.09 6.176 283.09 6.72V9.04C283.09 9.648 282.855 10.1173 282.386 10.448C281.927 10.7787 281.293 10.9493 280.482 10.96L283.538 14H279.666L276.594 11.024H273.57V14H270.45V8.64H279.954V7.264H270.45L268.37 4.88H280.946ZM286.725 10.64C286.448 10.64 286.181 10.608 285.925 10.544C285.669 10.48 285.44 10.3733 285.237 10.224C285.034 10.0747 284.869 9.88267 284.741 9.648C284.624 9.40267 284.565 9.104 284.565 8.752V6.304C284.565 6.15467 284.618 6 284.725 5.84C284.842 5.66933 284.981 5.51467 285.141 5.376C285.312 5.22667 285.493 5.10933 285.685 5.024C285.888 4.928 286.08 4.88 286.261 4.88H297.573V7.28H287.685V8.24H295.397C295.674 8.24 295.941 8.272 296.197 8.336C296.464 8.4 296.698 8.50667 296.901 8.656C297.104 8.80533 297.264 8.99733 297.381 9.232C297.509 9.46667 297.573 9.76 297.573 10.112V12.592C297.573 12.7413 297.52 12.9013 297.413 13.072C297.306 13.232 297.168 13.3813 296.997 13.52C296.837 13.6587 296.656 13.776 296.453 13.872C296.261 13.9573 296.069 14 295.877 14H284.565V11.6H294.453V10.64H286.725ZM312.998 4.88V7.264H300.966L298.886 4.88H312.998ZM300.966 11.584H312.982V14H300.966V11.584ZM300.966 8.224H309.942V10.624H300.966V8.224ZM327.222 14H316.294V7.264L314.214 4.88H319.414V11.616H327.222V14ZM337.879 8.224V10.624H332.039V14H328.919V8.224H337.879ZM326.839 4.88H340.935V7.264H328.919L326.839 4.88Z" fill="white"/>
<line x1="66" y1="32.7" x2="123" y2="32.7" stroke="#F17D09" stroke-width="0.6"/>
<line x1="285" y1="32.7" x2="342" y2="32.7" stroke="#F17D09" stroke-width="0.6"/>
<path d="M132.468 29.11C132.503 28.9887 132.563 28.9193 132.65 28.902C132.737 28.8673 132.797 28.876 132.832 28.928L132.91 28.694C132.979 28.538 133.092 28.4167 133.248 28.33C133.404 28.2433 133.569 28.1913 133.742 28.174C133.915 28.1393 134.071 28.1307 134.21 28.148C134.366 28.1653 134.487 28.1827 134.574 28.2C134.817 28.2867 135.077 28.4167 135.354 28.59C135.649 28.746 135.909 28.9453 136.134 29.188C136.359 29.4133 136.524 29.6907 136.628 30.02C136.749 30.3493 136.775 30.7307 136.706 31.164C136.619 31.528 136.437 31.8747 136.16 32.204C135.883 32.5333 135.536 32.8193 135.12 33.062C134.479 33.426 133.829 33.6947 133.17 33.868C133.17 33.92 133.179 34.0587 133.196 34.284C133.231 34.492 133.257 34.7173 133.274 34.96C133.309 35.2027 133.335 35.4193 133.352 35.61C133.369 35.8007 133.378 35.9047 133.378 35.922C133.343 36.0087 133.265 36.0607 133.144 36.078C133.023 36.0953 132.945 36.0607 132.91 35.974C132.893 35.87 132.867 35.7313 132.832 35.558C132.815 35.3673 132.789 35.1767 132.754 34.986C132.737 34.778 132.711 34.5873 132.676 34.414C132.659 34.2233 132.65 34.0673 132.65 33.946C132.494 33.9633 132.364 33.9547 132.26 33.92C132.156 33.8853 132.095 33.816 132.078 33.712C132.043 33.5733 132.087 33.452 132.208 33.348C132.347 33.2267 132.468 33.1487 132.572 33.114C132.52 32.4553 132.485 31.788 132.468 31.112C132.451 30.436 132.451 29.7687 132.468 29.11ZM133.274 28.85C133.153 29.006 133.075 29.2573 133.04 29.604C133.005 29.9333 132.988 30.3147 132.988 30.748C132.988 31.1813 133.005 31.6407 133.04 32.126C133.075 32.594 133.109 33.0447 133.144 33.478C133.629 33.3913 134.115 33.218 134.6 32.958C135.085 32.698 135.484 32.3947 135.796 32.048C136.125 31.684 136.316 31.294 136.368 30.878C136.437 30.4447 136.29 30.0113 135.926 29.578C135.839 29.474 135.683 29.3353 135.458 29.162C135.25 28.9887 135.007 28.8413 134.73 28.72C134.47 28.5987 134.201 28.538 133.924 28.538C133.664 28.5207 133.447 28.6247 133.274 28.85ZM132.52 33.53C132.555 33.53 132.572 33.5387 132.572 33.556C132.572 33.556 132.581 33.556 132.598 33.556C132.598 33.504 132.589 33.4693 132.572 33.452L132.52 33.53ZM137.426 33.374C137.444 33.0967 137.504 32.8193 137.608 32.542C137.712 32.2647 137.851 32.0307 138.024 31.84C138.198 31.6493 138.388 31.5193 138.596 31.45C138.804 31.3633 139.021 31.3807 139.246 31.502C139.61 31.6927 139.81 31.9353 139.844 32.23C139.896 32.5073 139.836 32.776 139.662 33.036C139.489 33.2787 139.238 33.4953 138.908 33.686C138.596 33.8593 138.25 33.9373 137.868 33.92C137.972 34.2147 138.189 34.414 138.518 34.518C138.848 34.6047 139.316 34.4747 139.922 34.128C140.078 34.0933 140.148 34.128 140.13 34.232C140.13 34.336 140.087 34.4227 140 34.492C139.723 34.648 139.42 34.778 139.09 34.882C138.778 34.9687 138.458 34.934 138.128 34.778C137.938 34.6913 137.764 34.5527 137.608 34.362C137.47 34.154 137.409 33.8247 137.426 33.374ZM139.038 31.892C138.848 31.8227 138.674 31.8313 138.518 31.918C138.362 31.9873 138.224 32.1087 138.102 32.282C137.998 32.438 137.912 32.6287 137.842 32.854C137.79 33.062 137.764 33.27 137.764 33.478C138.076 33.5647 138.354 33.5473 138.596 33.426C138.856 33.3047 139.056 33.1487 139.194 32.958C139.35 32.7673 139.42 32.568 139.402 32.36C139.385 32.152 139.264 31.996 139.038 31.892ZM141.379 30.28C141.379 30.1587 141.44 30.072 141.561 30.02C141.682 29.968 141.76 30.0113 141.795 30.15C141.795 30.8953 141.795 31.6407 141.795 32.386C141.795 33.114 141.864 33.8507 142.003 34.596C142.159 34.024 142.315 33.5387 142.471 33.14C142.627 32.724 142.826 32.3947 143.069 32.152C143.329 31.892 143.658 31.7013 144.057 31.58C144.456 31.4413 144.984 31.3547 145.643 31.32C145.782 31.3547 145.834 31.424 145.799 31.528C145.764 31.632 145.695 31.7013 145.591 31.736C144.811 31.7707 144.239 31.8747 143.875 32.048C143.511 32.204 143.242 32.4293 143.069 32.724C142.913 33.0013 142.783 33.3567 142.679 33.79C142.592 34.206 142.436 34.6913 142.211 35.246C142.176 35.3327 142.116 35.3933 142.029 35.428C141.942 35.4627 141.873 35.4193 141.821 35.298C141.526 34.4833 141.379 33.6513 141.379 32.802C141.379 31.9527 141.379 31.112 141.379 30.28ZM150.306 30.774C150.41 30.8607 150.428 30.9387 150.358 31.008C150.306 31.0773 150.22 31.112 150.098 31.112C149.908 31.0773 149.682 31.0513 149.422 31.034C149.18 30.9993 148.928 30.9733 148.668 30.956C148.426 30.9387 148.192 30.9387 147.966 30.956C147.741 30.956 147.559 30.9733 147.42 31.008C147.334 31.0427 147.273 31.086 147.238 31.138C147.221 31.19 147.256 31.2593 147.342 31.346C147.516 31.5193 147.732 31.6927 147.992 31.866C148.252 32.0393 148.521 32.2213 148.798 32.412C149.093 32.5853 149.388 32.7673 149.682 32.958C149.977 33.1487 150.246 33.3393 150.488 33.53C150.731 33.478 150.982 33.4433 151.242 33.426C151.502 33.4087 151.754 33.3827 151.996 33.348C152.135 33.3827 152.178 33.452 152.126 33.556C152.092 33.66 152.022 33.7293 151.918 33.764L150.852 33.868C151.078 34.0933 151.199 34.3187 151.216 34.544C151.234 34.752 151.182 34.9513 151.06 35.142C150.939 35.3327 150.766 35.4973 150.54 35.636C150.332 35.7747 150.098 35.87 149.838 35.922C149.613 35.974 149.344 36 149.032 36C148.72 36.0173 148.417 35.9913 148.122 35.922C147.828 35.8527 147.568 35.7487 147.342 35.61C147.117 35.454 146.987 35.2547 146.952 35.012C146.952 34.8733 147.074 34.7347 147.316 34.596C147.576 34.44 147.862 34.3013 148.174 34.18C148.504 34.0413 148.824 33.9287 149.136 33.842C149.466 33.738 149.708 33.6687 149.864 33.634C149.57 33.426 149.249 33.2093 148.902 32.984C148.556 32.7587 148.226 32.5507 147.914 32.36C147.62 32.152 147.36 31.97 147.134 31.814C146.926 31.6407 146.805 31.502 146.77 31.398C146.718 31.2593 146.701 31.1207 146.718 30.982C146.753 30.826 146.866 30.7133 147.056 30.644C147.23 30.592 147.446 30.5573 147.706 30.54C147.966 30.5227 148.235 30.5227 148.512 30.54C148.807 30.54 149.11 30.566 149.422 30.618C149.734 30.6527 150.029 30.7047 150.306 30.774ZM149.604 35.584C150.211 35.4453 150.584 35.2287 150.722 34.934C150.878 34.622 150.731 34.2927 150.28 33.946C150.02 33.9807 149.726 34.05 149.396 34.154C149.067 34.2407 148.755 34.336 148.46 34.44C148.183 34.544 147.94 34.648 147.732 34.752C147.524 34.856 147.412 34.9427 147.394 35.012C147.394 35.1507 147.481 35.2633 147.654 35.35C147.828 35.4367 148.036 35.506 148.278 35.558C148.521 35.61 148.764 35.636 149.006 35.636C149.266 35.636 149.466 35.6187 149.604 35.584ZM152.902 33.27C153.006 32.9753 153.154 32.672 153.344 32.36C153.552 32.0307 153.76 31.7967 153.968 31.658C153.934 31.5713 153.977 31.4673 154.098 31.346C154.237 31.2247 154.341 31.216 154.41 31.32C154.601 31.5107 154.748 31.7187 154.852 31.944C154.974 32.1693 155.078 32.412 155.164 32.672C155.303 33.1573 155.338 33.5733 155.268 33.92C155.216 34.2493 155.095 34.5093 154.904 34.7C154.731 34.8907 154.514 35.0033 154.254 35.038C153.994 35.0727 153.734 35.038 153.474 34.934C153.214 34.8473 153.015 34.6653 152.876 34.388C152.755 34.0933 152.764 33.7207 152.902 33.27ZM153.552 34.492C153.986 34.7 154.306 34.726 154.514 34.57C154.74 34.3967 154.87 34.1453 154.904 33.816C154.939 33.4867 154.904 33.14 154.8 32.776C154.696 32.412 154.549 32.1347 154.358 31.944C154.168 31.996 153.977 32.1433 153.786 32.386C153.596 32.6113 153.44 32.8627 153.318 33.14C153.214 33.4173 153.171 33.686 153.188 33.946C153.206 34.206 153.327 34.388 153.552 34.492ZM156.911 31.424C156.945 31.32 157.006 31.2507 157.093 31.216C157.197 31.164 157.266 31.2073 157.301 31.346C157.266 31.9007 157.214 32.464 157.145 33.036C157.093 33.608 157.067 34.18 157.067 34.752C157.223 34.4747 157.37 34.18 157.509 33.868C157.647 33.5387 157.786 33.244 157.925 32.984C158.081 32.7067 158.228 32.4727 158.367 32.282C158.523 32.0913 158.696 31.9873 158.887 31.97C159.077 31.9527 159.285 32.048 159.511 32.256C159.736 32.464 159.996 32.828 160.291 33.348C160.429 33.5733 160.559 33.7987 160.681 34.024C160.819 34.232 160.975 34.4313 161.149 34.622C161.235 34.726 161.218 34.83 161.097 34.934C160.993 35.0207 160.897 35.0207 160.811 34.934C160.672 34.778 160.525 34.5613 160.369 34.284C160.213 33.9893 160.048 33.712 159.875 33.452C159.719 33.1747 159.545 32.932 159.355 32.724C159.164 32.516 158.965 32.412 158.757 32.412C158.549 32.5853 158.375 32.7933 158.237 33.036C158.115 33.2613 158.003 33.504 157.899 33.764C157.795 34.0067 157.682 34.258 157.561 34.518C157.457 34.7607 157.318 34.986 157.145 35.194C157.075 35.2633 156.989 35.298 156.885 35.298C156.798 35.298 156.737 35.246 156.703 35.142C156.616 34.5353 156.616 33.9113 156.703 33.27C156.789 32.6287 156.859 32.0133 156.911 31.424ZM165.521 32.1C165.556 32.1867 165.521 32.2733 165.417 32.36C165.33 32.4467 165.244 32.4467 165.157 32.36C165.226 32.6893 165.313 33.036 165.417 33.4C165.521 33.764 165.625 34.1193 165.729 34.466C165.833 34.7953 165.946 35.0987 166.067 35.376C166.188 35.636 166.301 35.8353 166.405 35.974C166.44 36.078 166.405 36.1647 166.301 36.234C166.214 36.3207 166.128 36.3207 166.041 36.234C165.746 35.8007 165.547 35.35 165.443 34.882C165.339 34.414 165.226 33.9287 165.105 33.426L164.975 32.984C164.888 33.452 164.724 33.868 164.481 34.232C164.325 34.44 164.126 34.6393 163.883 34.83C163.658 35.0207 163.424 35.1507 163.181 35.22C162.956 35.272 162.748 35.2373 162.557 35.116C162.366 34.9947 162.236 34.7347 162.167 34.336C162.115 33.972 162.15 33.608 162.271 33.244C162.392 32.8627 162.566 32.5247 162.791 32.23C163.034 31.918 163.302 31.6667 163.597 31.476C163.909 31.268 164.204 31.1467 164.481 31.112V31.008C164.516 30.9213 164.568 30.8607 164.637 30.826C164.724 30.7913 164.802 30.8173 164.871 30.904L164.923 31.216C165.218 31.3373 165.417 31.632 165.521 32.1ZM164.169 34.076C164.412 33.6947 164.55 33.2873 164.585 32.854C164.62 32.4207 164.611 31.9873 164.559 31.554C164.351 31.5193 164.117 31.58 163.857 31.736C163.597 31.8747 163.363 32.074 163.155 32.334C162.947 32.594 162.782 32.8887 162.661 33.218C162.54 33.53 162.505 33.8247 162.557 34.102C162.609 34.3967 162.696 34.596 162.817 34.7C162.938 34.7867 163.077 34.8213 163.233 34.804C163.389 34.7693 163.545 34.6913 163.701 34.57C163.874 34.4313 164.03 34.2667 164.169 34.076ZM167.88 25.47C167.915 25.366 167.984 25.2967 168.088 25.262C168.192 25.21 168.262 25.2533 168.296 25.392C168.279 27.0213 168.244 28.6333 168.192 30.228C168.158 31.8227 168.132 33.4347 168.114 35.064C168.097 35.168 168.028 35.246 167.906 35.298C167.785 35.3327 167.724 35.272 167.724 35.116C167.742 33.4867 167.768 31.8747 167.802 30.28C167.837 28.6853 167.863 27.082 167.88 25.47ZM174.67 29.292C174.532 29.2573 174.462 29.1967 174.462 29.11C174.462 29.006 174.514 28.928 174.618 28.876C175.762 28.8413 176.906 28.772 178.05 28.668C179.194 28.564 180.338 28.4947 181.482 28.46C181.621 28.46 181.699 28.5207 181.716 28.642C181.734 28.7633 181.673 28.8413 181.534 28.876C180.98 28.9107 180.425 28.9453 179.87 28.98C179.333 28.9973 178.787 29.032 178.232 29.084C178.25 30.228 178.31 31.3547 178.414 32.464C178.518 33.5733 178.683 34.6913 178.908 35.818C178.908 35.9567 178.856 36.0347 178.752 36.052C178.648 36.0693 178.562 36.026 178.492 35.922C178.284 34.778 178.12 33.6427 177.998 32.516C177.894 31.3893 177.834 30.254 177.816 29.11C177.296 29.1447 176.768 29.1793 176.23 29.214C175.71 29.2487 175.19 29.2747 174.67 29.292ZM181.543 30.28C181.543 30.1587 181.604 30.072 181.725 30.02C181.846 29.968 181.924 30.0113 181.959 30.15C181.959 30.8953 181.959 31.6407 181.959 32.386C181.959 33.114 182.028 33.8507 182.167 34.596C182.323 34.024 182.479 33.5387 182.635 33.14C182.791 32.724 182.99 32.3947 183.233 32.152C183.493 31.892 183.822 31.7013 184.221 31.58C184.62 31.4413 185.148 31.3547 185.807 31.32C185.946 31.3547 185.998 31.424 185.963 31.528C185.928 31.632 185.859 31.7013 185.755 31.736C184.975 31.7707 184.403 31.8747 184.039 32.048C183.675 32.204 183.406 32.4293 183.233 32.724C183.077 33.0013 182.947 33.3567 182.843 33.79C182.756 34.206 182.6 34.6913 182.375 35.246C182.34 35.3327 182.28 35.3933 182.193 35.428C182.106 35.4627 182.037 35.4193 181.985 35.298C181.69 34.4833 181.543 33.6513 181.543 32.802C181.543 31.9527 181.543 31.112 181.543 30.28ZM189.627 32.1C189.662 32.1867 189.627 32.2733 189.523 32.36C189.436 32.4467 189.35 32.4467 189.263 32.36C189.332 32.6893 189.419 33.036 189.523 33.4C189.627 33.764 189.731 34.1193 189.835 34.466C189.939 34.7953 190.052 35.0987 190.173 35.376C190.294 35.636 190.407 35.8353 190.511 35.974C190.546 36.078 190.511 36.1647 190.407 36.234C190.32 36.3207 190.234 36.3207 190.147 36.234C189.852 35.8007 189.653 35.35 189.549 34.882C189.445 34.414 189.332 33.9287 189.211 33.426L189.081 32.984C188.994 33.452 188.83 33.868 188.587 34.232C188.431 34.44 188.232 34.6393 187.989 34.83C187.764 35.0207 187.53 35.1507 187.287 35.22C187.062 35.272 186.854 35.2373 186.663 35.116C186.472 34.9947 186.342 34.7347 186.273 34.336C186.221 33.972 186.256 33.608 186.377 33.244C186.498 32.8627 186.672 32.5247 186.897 32.23C187.14 31.918 187.408 31.6667 187.703 31.476C188.015 31.268 188.31 31.1467 188.587 31.112V31.008C188.622 30.9213 188.674 30.8607 188.743 30.826C188.83 30.7913 188.908 30.8173 188.977 30.904L189.029 31.216C189.324 31.3373 189.523 31.632 189.627 32.1ZM188.275 34.076C188.518 33.6947 188.656 33.2873 188.691 32.854C188.726 32.4207 188.717 31.9873 188.665 31.554C188.457 31.5193 188.223 31.58 187.963 31.736C187.703 31.8747 187.469 32.074 187.261 32.334C187.053 32.594 186.888 32.8887 186.767 33.218C186.646 33.53 186.611 33.8247 186.663 34.102C186.715 34.3967 186.802 34.596 186.923 34.7C187.044 34.7867 187.183 34.8213 187.339 34.804C187.495 34.7693 187.651 34.6913 187.807 34.57C187.98 34.4313 188.136 34.2667 188.275 34.076ZM191.81 31.268C191.844 31.1813 191.914 31.1207 192.018 31.086C192.122 31.034 192.182 31.0773 192.2 31.216C192.182 31.8747 192.156 32.5247 192.122 33.166C192.087 33.79 192.061 34.4313 192.044 35.09C192.009 35.2113 191.931 35.298 191.81 35.35C191.706 35.3847 191.654 35.324 191.654 35.168C191.671 34.5093 191.697 33.8593 191.732 33.218C191.766 32.5767 191.792 31.9267 191.81 31.268ZM192.174 28.59C192.243 28.6767 192.226 28.772 192.122 28.876C192.035 28.98 191.948 28.9973 191.862 28.928C191.758 28.8587 191.758 28.772 191.862 28.668C191.966 28.5467 192.07 28.5207 192.174 28.59ZM194.231 31.424C194.265 31.32 194.326 31.2507 194.413 31.216C194.517 31.164 194.586 31.2073 194.621 31.346C194.586 31.9007 194.534 32.464 194.465 33.036C194.413 33.608 194.387 34.18 194.387 34.752C194.543 34.4747 194.69 34.18 194.829 33.868C194.967 33.5387 195.106 33.244 195.245 32.984C195.401 32.7067 195.548 32.4727 195.687 32.282C195.843 32.0913 196.016 31.9873 196.207 31.97C196.397 31.9527 196.605 32.048 196.831 32.256C197.056 32.464 197.316 32.828 197.611 33.348C197.749 33.5733 197.879 33.7987 198.001 34.024C198.139 34.232 198.295 34.4313 198.469 34.622C198.555 34.726 198.538 34.83 198.417 34.934C198.313 35.0207 198.217 35.0207 198.131 34.934C197.992 34.778 197.845 34.5613 197.689 34.284C197.533 33.9893 197.368 33.712 197.195 33.452C197.039 33.1747 196.865 32.932 196.675 32.724C196.484 32.516 196.285 32.412 196.077 32.412C195.869 32.5853 195.695 32.7933 195.557 33.036C195.435 33.2613 195.323 33.504 195.219 33.764C195.115 34.0067 195.002 34.258 194.881 34.518C194.777 34.7607 194.638 34.986 194.465 35.194C194.395 35.2633 194.309 35.298 194.205 35.298C194.118 35.298 194.057 35.246 194.023 35.142C193.936 34.5353 193.936 33.9113 194.023 33.27C194.109 32.6287 194.179 32.0133 194.231 31.424ZM199.959 31.268C199.994 31.1813 200.063 31.1207 200.167 31.086C200.271 31.034 200.332 31.0773 200.349 31.216C200.332 31.8747 200.306 32.5247 200.271 33.166C200.236 33.79 200.21 34.4313 200.193 35.09C200.158 35.2113 200.08 35.298 199.959 35.35C199.855 35.3847 199.803 35.324 199.803 35.168C199.82 34.5093 199.846 33.8593 199.881 33.218C199.916 32.5767 199.942 31.9267 199.959 31.268ZM200.323 28.59C200.392 28.6767 200.375 28.772 200.271 28.876C200.184 28.98 200.098 28.9973 200.011 28.928C199.907 28.8587 199.907 28.772 200.011 28.668C200.115 28.5467 200.219 28.5207 200.323 28.59ZM202.38 31.424C202.415 31.32 202.476 31.2507 202.562 31.216C202.666 31.164 202.736 31.2073 202.77 31.346C202.736 31.9007 202.684 32.464 202.614 33.036C202.562 33.608 202.536 34.18 202.536 34.752C202.692 34.4747 202.84 34.18 202.978 33.868C203.117 33.5387 203.256 33.244 203.394 32.984C203.55 32.7067 203.698 32.4727 203.836 32.282C203.992 32.0913 204.166 31.9873 204.356 31.97C204.547 31.9527 204.755 32.048 204.98 32.256C205.206 32.464 205.466 32.828 205.76 33.348C205.899 33.5733 206.029 33.7987 206.15 34.024C206.289 34.232 206.445 34.4313 206.618 34.622C206.705 34.726 206.688 34.83 206.566 34.934C206.462 35.0207 206.367 35.0207 206.28 34.934C206.142 34.778 205.994 34.5613 205.838 34.284C205.682 33.9893 205.518 33.712 205.344 33.452C205.188 33.1747 205.015 32.932 204.824 32.724C204.634 32.516 204.434 32.412 204.226 32.412C204.018 32.5853 203.845 32.7933 203.706 33.036C203.585 33.2613 203.472 33.504 203.368 33.764C203.264 34.0067 203.152 34.258 203.03 34.518C202.926 34.7607 202.788 34.986 202.614 35.194C202.545 35.2633 202.458 35.298 202.354 35.298C202.268 35.298 202.207 35.246 202.172 35.142C202.086 34.5353 202.086 33.9113 202.172 33.27C202.259 32.6287 202.328 32.0133 202.38 31.424ZM211.044 32.854C211.079 32.9753 211.035 33.0793 210.914 33.166C210.81 33.2353 210.732 33.2007 210.68 33.062C210.628 32.75 210.524 32.5333 210.368 32.412C210.455 33.2613 210.602 34.05 210.81 34.778C211.018 35.4887 211.217 36.1993 211.408 36.91C211.72 36.806 212.049 36.702 212.396 36.598C212.76 36.5113 213.089 36.4507 213.384 36.416C213.696 36.3987 213.965 36.416 214.19 36.468C214.415 36.5373 214.563 36.6673 214.632 36.858C214.667 36.962 214.623 37.0573 214.502 37.144C214.398 37.2307 214.311 37.2047 214.242 37.066C214.19 36.91 214.034 36.8233 213.774 36.806C213.531 36.806 213.263 36.832 212.968 36.884C212.673 36.9533 212.387 37.0313 212.11 37.118C211.833 37.2047 211.642 37.2567 211.538 37.274C211.642 37.6207 211.763 38.0107 211.902 38.444C212.041 38.8947 212.171 39.3627 212.292 39.848C212.431 40.3507 212.535 40.8533 212.604 41.356C212.673 41.876 212.691 42.3787 212.656 42.864C212.604 43.5053 212.448 44.0427 212.188 44.476C211.928 44.9093 211.581 45.2473 211.148 45.49C210.732 45.75 210.247 45.906 209.692 45.958C209.155 46.01 208.583 45.9667 207.976 45.828C207.629 45.7587 207.291 45.646 206.962 45.49C206.633 45.3513 206.347 45.178 206.104 44.97C205.844 44.762 205.636 44.5193 205.48 44.242C205.324 43.982 205.237 43.696 205.22 43.384C205.168 42.6387 205.315 41.9367 205.662 41.278C206.009 40.6193 206.477 40.0127 207.066 39.458C207.638 38.9207 208.271 38.444 208.964 38.028C209.675 37.6293 210.351 37.3087 210.992 37.066C210.801 36.4593 210.619 35.8527 210.446 35.246C210.273 34.6393 210.125 34.0327 210.004 33.426C209.952 33.6167 209.822 33.842 209.614 34.102C209.423 34.362 209.207 34.5873 208.964 34.778C208.548 35.1073 208.193 35.168 207.898 34.96C207.603 34.752 207.499 34.3793 207.586 33.842C207.621 33.582 207.707 33.3393 207.846 33.114C207.985 32.8713 208.158 32.6633 208.366 32.49C208.574 32.2993 208.791 32.1433 209.016 32.022C209.259 31.9007 209.493 31.8227 209.718 31.788C209.683 31.3547 209.683 30.9127 209.718 30.462C209.753 30.3753 209.822 30.306 209.926 30.254C210.03 30.1847 210.125 30.1933 210.212 30.28C210.333 30.5747 210.411 30.8607 210.446 31.138C210.481 31.398 210.481 31.6667 210.446 31.944C210.775 32.1173 210.975 32.4207 211.044 32.854ZM208.08 45.386C208.583 45.5073 209.068 45.5507 209.536 45.516C210.004 45.4987 210.42 45.386 210.784 45.178C211.165 44.9873 211.477 44.7013 211.72 44.32C211.98 43.9387 212.145 43.4533 212.214 42.864C212.266 42.4307 212.266 41.9887 212.214 41.538C212.162 41.0873 212.075 40.628 211.954 40.16C211.85 39.692 211.72 39.224 211.564 38.756C211.408 38.3053 211.261 37.8547 211.122 37.404C210.602 37.56 210.004 37.8373 209.328 38.236C208.669 38.652 208.045 39.1373 207.456 39.692C206.867 40.2467 206.39 40.8447 206.026 41.486C205.662 42.1273 205.532 42.7687 205.636 43.41C205.723 43.9127 206.009 44.3287 206.494 44.658C206.962 45.0047 207.491 45.2473 208.08 45.386ZM209.9 32.906C209.865 32.7847 209.839 32.672 209.822 32.568C209.805 32.4467 209.787 32.3167 209.77 32.178C209.215 32.334 208.799 32.5593 208.522 32.854C208.245 33.1487 208.071 33.4433 208.002 33.738C207.967 33.8593 207.959 33.9893 207.976 34.128C207.993 34.2493 208.037 34.362 208.106 34.466C208.175 34.5527 208.262 34.6047 208.366 34.622C208.47 34.6393 208.6 34.596 208.756 34.492C209.068 34.2493 209.449 33.7207 209.9 32.906ZM222.491 31.268C222.525 31.1813 222.595 31.1207 222.699 31.086C222.803 31.034 222.863 31.0773 222.881 31.216C222.863 31.8747 222.837 32.5247 222.803 33.166C222.768 33.79 222.742 34.4313 222.725 35.09C222.69 35.2113 222.612 35.298 222.491 35.35C222.387 35.3847 222.335 35.324 222.335 35.168C222.352 34.5093 222.378 33.8593 222.413 33.218C222.447 32.5767 222.473 31.9267 222.491 31.268ZM222.855 28.59C222.924 28.6767 222.907 28.772 222.803 28.876C222.716 28.98 222.629 28.9973 222.543 28.928C222.439 28.8587 222.439 28.772 222.543 28.668C222.647 28.5467 222.751 28.5207 222.855 28.59ZM224.912 31.424C224.946 31.32 225.007 31.2507 225.094 31.216C225.198 31.164 225.267 31.2073 225.302 31.346C225.267 31.9007 225.215 32.464 225.146 33.036C225.094 33.608 225.068 34.18 225.068 34.752C225.224 34.4747 225.371 34.18 225.51 33.868C225.648 33.5387 225.787 33.244 225.926 32.984C226.082 32.7067 226.229 32.4727 226.368 32.282C226.524 32.0913 226.697 31.9873 226.888 31.97C227.078 31.9527 227.286 32.048 227.512 32.256C227.737 32.464 227.997 32.828 228.292 33.348C228.43 33.5733 228.56 33.7987 228.682 34.024C228.82 34.232 228.976 34.4313 229.15 34.622C229.236 34.726 229.219 34.83 229.098 34.934C228.994 35.0207 228.898 35.0207 228.812 34.934C228.673 34.778 228.526 34.5613 228.37 34.284C228.214 33.9893 228.049 33.712 227.876 33.452C227.72 33.1747 227.546 32.932 227.356 32.724C227.165 32.516 226.966 32.412 226.758 32.412C226.55 32.5853 226.376 32.7933 226.238 33.036C226.116 33.2613 226.004 33.504 225.9 33.764C225.796 34.0067 225.683 34.258 225.562 34.518C225.458 34.7607 225.319 34.986 225.146 35.194C225.076 35.2633 224.99 35.298 224.886 35.298C224.799 35.298 224.738 35.246 224.704 35.142C224.617 34.5353 224.617 33.9113 224.704 33.27C224.79 32.6287 224.86 32.0133 224.912 31.424ZM234.952 27.654C234.987 27.5153 235.056 27.4547 235.16 27.472C235.281 27.4893 235.342 27.5673 235.342 27.706C235.342 27.81 235.333 28.044 235.316 28.408C235.316 28.7547 235.316 29.136 235.316 29.552C235.316 29.968 235.307 30.358 235.29 30.722C235.29 31.086 235.29 31.32 235.29 31.424C235.307 31.9613 235.333 32.5247 235.368 33.114C235.42 33.7033 235.55 34.2147 235.758 34.648C235.966 35.0813 236.287 35.3847 236.72 35.558C237.153 35.7313 237.751 35.6707 238.514 35.376C238.913 35.22 239.277 35.038 239.606 34.83C239.953 34.622 240.299 34.4227 240.646 34.232C240.785 34.232 240.863 34.284 240.88 34.388C240.915 34.4747 240.88 34.5527 240.776 34.622C240.429 34.8127 240.083 35.012 239.736 35.22C239.389 35.428 239.034 35.6013 238.67 35.74C237.855 36.0693 237.197 36.156 236.694 36C236.191 35.8267 235.801 35.506 235.524 35.038C235.247 34.57 235.056 33.998 234.952 33.322C234.865 32.646 234.813 31.9527 234.796 31.242C234.796 30.5313 234.813 29.8553 234.848 29.214C234.9 28.5727 234.935 28.0527 234.952 27.654ZM242.09 31.268C242.125 31.1813 242.194 31.1207 242.298 31.086C242.402 31.034 242.463 31.0773 242.48 31.216C242.463 31.8747 242.437 32.5247 242.402 33.166C242.367 33.79 242.341 34.4313 242.324 35.09C242.289 35.2113 242.211 35.298 242.09 35.35C241.986 35.3847 241.934 35.324 241.934 35.168C241.951 34.5093 241.977 33.8593 242.012 33.218C242.047 32.5767 242.073 31.9267 242.09 31.268ZM242.454 28.59C242.523 28.6767 242.506 28.772 242.402 28.876C242.315 28.98 242.229 28.9973 242.142 28.928C242.038 28.8587 242.038 28.772 242.142 28.668C242.246 28.5467 242.35 28.5207 242.454 28.59ZM244.616 29.838C244.685 29.7513 244.772 29.708 244.876 29.708C244.98 29.708 245.015 29.7773 244.98 29.916C244.876 30.1067 244.789 30.436 244.72 30.904C244.668 31.372 244.633 31.8747 244.616 32.412C244.599 32.932 244.599 33.4347 244.616 33.92C244.651 34.388 244.703 34.726 244.772 34.934C245.032 34.3273 245.257 33.7207 245.448 33.114C245.639 32.49 245.907 31.9007 246.254 31.346C246.306 31.2767 246.358 31.2247 246.41 31.19C246.479 31.1553 246.549 31.1813 246.618 31.268C246.687 31.5627 246.748 31.9267 246.8 32.36C246.852 32.776 246.93 33.2007 247.034 33.634C247.138 34.05 247.285 34.4227 247.476 34.752C247.684 35.0813 247.97 35.298 248.334 35.402C248.646 35.4887 248.897 35.3847 249.088 35.09C249.279 34.7953 249.426 34.44 249.53 34.024C249.634 33.608 249.703 33.192 249.738 32.776C249.773 32.36 249.79 32.0653 249.79 31.892C249.79 31.788 249.842 31.71 249.946 31.658C250.067 31.606 250.154 31.6493 250.206 31.788C250.223 32.1347 250.275 32.5073 250.362 32.906C250.449 33.3047 250.587 33.66 250.778 33.972C250.969 34.284 251.211 34.5267 251.506 34.7C251.818 34.856 252.199 34.882 252.65 34.778C252.806 34.7433 252.875 34.7953 252.858 34.934C252.858 35.0553 252.789 35.1333 252.65 35.168C252.303 35.2547 251.991 35.272 251.714 35.22C251.437 35.168 251.194 35.064 250.986 34.908C250.778 34.752 250.605 34.5527 250.466 34.31C250.327 34.0673 250.206 33.8073 250.102 33.53C250.085 33.7553 250.033 33.998 249.946 34.258C249.859 34.518 249.747 34.7607 249.608 34.986C249.469 35.2113 249.287 35.402 249.062 35.558C248.854 35.6967 248.611 35.766 248.334 35.766C247.953 35.766 247.641 35.6187 247.398 35.324C247.173 35.0293 246.982 34.6827 246.826 34.284C246.687 33.8853 246.575 33.4693 246.488 33.036C246.419 32.6027 246.358 32.2387 246.306 31.944C246.167 32.2387 246.046 32.542 245.942 32.854C245.855 33.166 245.76 33.478 245.656 33.79C245.552 34.102 245.431 34.4053 245.292 34.7C245.171 34.9773 245.006 35.2373 244.798 35.48C244.642 35.6013 244.538 35.584 244.486 35.428C244.399 35.1853 244.33 34.804 244.278 34.284C244.226 33.764 244.2 33.218 244.2 32.646C244.217 32.0567 244.252 31.502 244.304 30.982C244.373 30.462 244.477 30.0807 244.616 29.838ZM256.423 32.1C256.457 32.1867 256.423 32.2733 256.319 32.36C256.232 32.4467 256.145 32.4467 256.059 32.36C256.128 32.6893 256.215 33.036 256.319 33.4C256.423 33.764 256.527 34.1193 256.631 34.466C256.735 34.7953 256.847 35.0987 256.969 35.376C257.09 35.636 257.203 35.8353 257.307 35.974C257.341 36.078 257.307 36.1647 257.203 36.234C257.116 36.3207 257.029 36.3207 256.943 36.234C256.648 35.8007 256.449 35.35 256.345 34.882C256.241 34.414 256.128 33.9287 256.007 33.426L255.877 32.984C255.79 33.452 255.625 33.868 255.383 34.232C255.227 34.44 255.027 34.6393 254.785 34.83C254.559 35.0207 254.325 35.1507 254.083 35.22C253.857 35.272 253.649 35.2373 253.459 35.116C253.268 34.9947 253.138 34.7347 253.069 34.336C253.017 33.972 253.051 33.608 253.173 33.244C253.294 32.8627 253.467 32.5247 253.693 32.23C253.935 31.918 254.204 31.6667 254.499 31.476C254.811 31.268 255.105 31.1467 255.383 31.112V31.008C255.417 30.9213 255.469 30.8607 255.539 30.826C255.625 30.7913 255.703 30.8173 255.773 30.904L255.825 31.216C256.119 31.3373 256.319 31.632 256.423 32.1ZM255.071 34.076C255.313 33.6947 255.452 33.2873 255.487 32.854C255.521 32.4207 255.513 31.9873 255.461 31.554C255.253 31.5193 255.019 31.58 254.759 31.736C254.499 31.8747 254.265 32.074 254.057 32.334C253.849 32.594 253.684 32.8887 253.563 33.218C253.441 33.53 253.407 33.8247 253.459 34.102C253.511 34.3967 253.597 34.596 253.719 34.7C253.84 34.7867 253.979 34.8213 254.135 34.804C254.291 34.7693 254.447 34.6913 254.603 34.57C254.776 34.4313 254.932 34.2667 255.071 34.076ZM261.671 30.774C261.775 30.8607 261.792 30.9387 261.723 31.008C261.671 31.0773 261.584 31.112 261.463 31.112C261.272 31.0773 261.047 31.0513 260.787 31.034C260.544 30.9993 260.293 30.9733 260.033 30.956C259.79 30.9387 259.556 30.9387 259.331 30.956C259.105 30.956 258.923 30.9733 258.785 31.008C258.698 31.0427 258.637 31.086 258.603 31.138C258.585 31.19 258.62 31.2593 258.707 31.346C258.88 31.5193 259.097 31.6927 259.357 31.866C259.617 32.0393 259.885 32.2213 260.163 32.412C260.457 32.5853 260.752 32.7673 261.047 32.958C261.341 33.1487 261.61 33.3393 261.853 33.53C262.095 33.478 262.347 33.4433 262.607 33.426C262.867 33.4087 263.118 33.3827 263.361 33.348C263.499 33.3827 263.543 33.452 263.491 33.556C263.456 33.66 263.387 33.7293 263.283 33.764L262.217 33.868C262.442 34.0933 262.563 34.3187 262.581 34.544C262.598 34.752 262.546 34.9513 262.425 35.142C262.303 35.3327 262.13 35.4973 261.905 35.636C261.697 35.7747 261.463 35.87 261.203 35.922C260.977 35.974 260.709 36 260.397 36C260.085 36.0173 259.781 35.9913 259.487 35.922C259.192 35.8527 258.932 35.7487 258.707 35.61C258.481 35.454 258.351 35.2547 258.317 35.012C258.317 34.8733 258.438 34.7347 258.681 34.596C258.941 34.44 259.227 34.3013 259.539 34.18C259.868 34.0413 260.189 33.9287 260.501 33.842C260.83 33.738 261.073 33.6687 261.229 33.634C260.934 33.426 260.613 33.2093 260.267 32.984C259.92 32.7587 259.591 32.5507 259.279 32.36C258.984 32.152 258.724 31.97 258.499 31.814C258.291 31.6407 258.169 31.502 258.135 31.398C258.083 31.2593 258.065 31.1207 258.083 30.982C258.117 30.826 258.23 30.7133 258.421 30.644C258.594 30.592 258.811 30.5573 259.071 30.54C259.331 30.5227 259.599 30.5227 259.877 30.54C260.171 30.54 260.475 30.566 260.787 30.618C261.099 30.6527 261.393 30.7047 261.671 30.774ZM260.969 35.584C261.575 35.4453 261.948 35.2287 262.087 34.934C262.243 34.622 262.095 34.2927 261.645 33.946C261.385 33.9807 261.09 34.05 260.761 34.154C260.431 34.2407 260.119 34.336 259.825 34.44C259.547 34.544 259.305 34.648 259.097 34.752C258.889 34.856 258.776 34.9427 258.759 35.012C258.759 35.1507 258.845 35.2633 259.019 35.35C259.192 35.4367 259.4 35.506 259.643 35.558C259.885 35.61 260.128 35.636 260.371 35.636C260.631 35.636 260.83 35.6187 260.969 35.584ZM267.218 30.774C267.322 30.8607 267.339 30.9387 267.27 31.008C267.218 31.0773 267.131 31.112 267.01 31.112C266.819 31.0773 266.594 31.0513 266.334 31.034C266.091 30.9993 265.84 30.9733 265.58 30.956C265.337 30.9387 265.103 30.9387 264.878 30.956C264.653 30.956 264.471 30.9733 264.332 31.008C264.245 31.0427 264.185 31.086 264.15 31.138C264.133 31.19 264.167 31.2593 264.254 31.346C264.427 31.5193 264.644 31.6927 264.904 31.866C265.164 32.0393 265.433 32.2213 265.71 32.412C266.005 32.5853 266.299 32.7673 266.594 32.958C266.889 33.1487 267.157 33.3393 267.4 33.53C267.643 33.478 267.894 33.4433 268.154 33.426C268.414 33.4087 268.665 33.3827 268.908 33.348C269.047 33.3827 269.09 33.452 269.038 33.556C269.003 33.66 268.934 33.7293 268.83 33.764L267.764 33.868C267.989 34.0933 268.111 34.3187 268.128 34.544C268.145 34.752 268.093 34.9513 267.972 35.142C267.851 35.3327 267.677 35.4973 267.452 35.636C267.244 35.7747 267.01 35.87 266.75 35.922C266.525 35.974 266.256 36 265.944 36C265.632 36.0173 265.329 35.9913 265.034 35.922C264.739 35.8527 264.479 35.7487 264.254 35.61C264.029 35.454 263.899 35.2547 263.864 35.012C263.864 34.8733 263.985 34.7347 264.228 34.596C264.488 34.44 264.774 34.3013 265.086 34.18C265.415 34.0413 265.736 33.9287 266.048 33.842C266.377 33.738 266.62 33.6687 266.776 33.634C266.481 33.426 266.161 33.2093 265.814 32.984C265.467 32.7587 265.138 32.5507 264.826 32.36C264.531 32.152 264.271 31.97 264.046 31.814C263.838 31.6407 263.717 31.502 263.682 31.398C263.63 31.2593 263.613 31.1207 263.63 30.982C263.665 30.826 263.777 30.7133 263.968 30.644C264.141 30.592 264.358 30.5573 264.618 30.54C264.878 30.5227 265.147 30.5227 265.424 30.54C265.719 30.54 266.022 30.566 266.334 30.618C266.646 30.6527 266.941 30.7047 267.218 30.774ZM266.516 35.584C267.123 35.4453 267.495 35.2287 267.634 34.934C267.79 34.622 267.643 34.2927 267.192 33.946C266.932 33.9807 266.637 34.05 266.308 34.154C265.979 34.2407 265.667 34.336 265.372 34.44C265.095 34.544 264.852 34.648 264.644 34.752C264.436 34.856 264.323 34.9427 264.306 35.012C264.306 35.1507 264.393 35.2633 264.566 35.35C264.739 35.4367 264.947 35.506 265.19 35.558C265.433 35.61 265.675 35.636 265.918 35.636C266.178 35.636 266.377 35.6187 266.516 35.584ZM269.814 33.27C269.918 32.9753 270.065 32.672 270.256 32.36C270.464 32.0307 270.672 31.7967 270.88 31.658C270.845 31.5713 270.889 31.4673 271.01 31.346C271.149 31.2247 271.253 31.216 271.322 31.32C271.513 31.5107 271.66 31.7187 271.764 31.944C271.885 32.1693 271.989 32.412 272.076 32.672C272.215 33.1573 272.249 33.5733 272.18 33.92C272.128 34.2493 272.007 34.5093 271.816 34.7C271.643 34.8907 271.426 35.0033 271.166 35.038C270.906 35.0727 270.646 35.038 270.386 34.934C270.126 34.8473 269.927 34.6653 269.788 34.388C269.667 34.0933 269.675 33.7207 269.814 33.27ZM270.464 34.492C270.897 34.7 271.218 34.726 271.426 34.57C271.651 34.3967 271.781 34.1453 271.816 33.816C271.851 33.4867 271.816 33.14 271.712 32.776C271.608 32.412 271.461 32.1347 271.27 31.944C271.079 31.996 270.889 32.1433 270.698 32.386C270.507 32.6113 270.351 32.8627 270.23 33.14C270.126 33.4173 270.083 33.686 270.1 33.946C270.117 34.206 270.239 34.388 270.464 34.492ZM273.9 25.47C273.935 25.366 274.004 25.2967 274.108 25.262C274.212 25.21 274.282 25.2533 274.316 25.392C274.299 27.0213 274.264 28.6333 274.212 30.228C274.178 31.8227 274.152 33.4347 274.134 35.064C274.117 35.168 274.048 35.246 273.926 35.298C273.805 35.3327 273.744 35.272 273.744 35.116C273.762 33.4867 273.788 31.8747 273.822 30.28C273.857 28.6853 273.883 27.082 273.9 25.47Z" fill="#F17D09"/>
</svg>
