<svg width="41" height="49" viewBox="0 0 41 49" fill="none" xmlns="http://www.w3.org/2000/svg">
<line y1="0.5" x2="41" y2="0.5" stroke="#F17D09"/>
<path fill-rule="evenodd" clip-rule="evenodd" d="M0 10L8.59677 26.1538H17.5242V27.4725L10.5806 40H30.4194L23.8065 27.4725V26.1538H32.4032L41 10H26.4516L21.1613 20.8791H20.1694C20.1694 20.8791 18.9297 18.7126 17.8248 17.5824C17.4246 17.1731 16.5323 16.5934 16.5323 16.5934C16.5323 16.5934 16.8466 15.3809 16.7427 14.6154C16.4663 12.5808 14.2177 10 14.2177 10H0ZM17.8248 23.5165H10.5806L5.62097 12.967H12.5645C12.5645 12.967 14.2472 14.6089 14.2177 15.9341C14.196 16.9143 13.5565 17.9121 13.5565 17.9121C13.5565 17.9121 15.3233 18.0998 16.2016 18.9011C16.9271 19.563 17.1935 21.2088 17.1935 21.2088L17.8248 23.5165ZM35.379 12.967H28.4355L23.8065 23.5165H30.4194L35.379 12.967ZM24.7984 36.7033H15.871L20.1694 29.1209H21.1613L24.7984 36.7033Z" fill="#F4F4F4"/>
<line y1="48.5" x2="41" y2="48.5" stroke="#F17D09"/>
</svg>
